<?xml version="1.0" standalone="no"?>
<!DOCTYPE svg PUBLIC "-//W3C//DTD SVG 20010904//EN"
 "http://www.w3.org/TR/2001/REC-SVG-20010904/DTD/svg10.dtd">
<svg version="1.0" xmlns="http://www.w3.org/2000/svg"
 width="220.000000pt" height="220.000000pt" viewBox="0 0 220.000000 220.000000"
 preserveAspectRatio="xMidYMid meet">
<metadata>
Created by potrace 1.11, written by Peter Selinger 2001-2013
</metadata>
<g transform="translate(0.000000,220.000000) scale(0.100000,-0.100000)"
fill="#000000" stroke="none">
<path d="M0 1100 l0 -1100 1100 0 1100 0 0 1100 0 1100 -1100 0 -1100 0 0
-1100z m699 52 c100 -227 117 -260 125 -240 6 13 58 131 117 263 l107 240 51
3 51 3 0 -325 0 -326 -40 0 -40 0 0 268 0 267 -48 -110 c-186 -423 -186 -425
-208 -425 -18 0 -37 37 -129 243 -60 133 -115 258 -121 277 -11 30 -13 -7 -14
-242 l0 -278 -35 0 -35 0 0 326 0 325 52 -3 52 -3 115 -263z m723 117 l3 -151
129 151 128 151 44 0 c24 0 44 -2 44 -5 0 -2 -61 -73 -136 -156 -135 -151
-135 -151 -117 -173 69 -78 249 -284 261 -298 14 -17 11 -18 -39 -17 l-54 0
-130 156 -130 155 -3 -156 -3 -156 -39 0 -40 0 0 325 0 325 40 0 39 0 3 -151z"/>
</g>
</svg>
